<svg id="Layer_1" data-name="Layer 1" xmlns="http://www.w3.org/2000/svg" xmlns:xlink="http://www.w3.org/1999/xlink" viewBox="0 0 1632.55 278.51"><defs><style>.cls-1{fill:url(#radial-gradient);}.cls-2{fill:url(#radial-gradient-2);}.cls-3{fill:url(#radial-gradient-3);}.cls-4{fill:url(#radial-gradient-4);}.cls-5{fill:url(#radial-gradient-5);}.cls-6{fill:url(#radial-gradient-6);}.cls-7{fill:#00ca76;}.cls-8{fill:#57545c;}.cls-9{fill:#3a383f;}.cls-10{fill:#00a863;}.cls-11{fill:#00ec88;}</style><radialGradient id="radial-gradient" cx="130.79" cy="136.79" r="124.74" gradientUnits="userSpaceOnUse"><stop offset="0" stop-color="#3a383f"/><stop offset="1" stop-color="#57545c"/></radialGradient><radialGradient id="radial-gradient-2" cx="338.45" cy="149.25" r="76.87" xlink:href="#radial-gradient"/><radialGradient id="radial-gradient-3" cx="450.81" cy="149.25" r="51.26" xlink:href="#radial-gradient"/><radialGradient id="radial-gradient-4" cx="728.88" cy="149.25" r="65.58" xlink:href="#radial-gradient"/><radialGradient id="radial-gradient-5" cx="785.37" cy="149.25" r="62.91" xlink:href="#radial-gradient"/><radialGradient id="radial-gradient-6" cx="849.76" cy="157.89" r="60.94" xlink:href="#radial-gradient"/></defs><title>cannabis</title><path class="cls-1" d="M252.18,242,194.61,264.8q-5.69-11-21.18-33.7t-43.56-63.64h-.73q-22.81,32.7-41.48,60.79T65.14,264.61L9.4,243.31q5.13-8.26,23.4-34.07t52.41-73.55V135q-20-30.68-42.77-62.72t-28.64-42L71.2,8.79Q76,18.52,92.44,42.58t39.27,56.56h.92q20-30.3,38.16-56.93T192.22,8.79L247.59,29q-4.41,7.53-27.74,39.48t-44.29,63.36v.74q26.1,36.92,46.4,64.83T252.18,242Z" transform="translate(-9.4 -8.79)"/><path class="cls-2" d="M364.13,66.57A63.83,63.83,0,0,1,397.7,100a60,60,0,0,1,5,24.42,60.92,60.92,0,0,1-5,24.56,63.51,63.51,0,0,1-33.57,33.57,60.94,60.94,0,0,1-24.55,5H314.52l12.28-30.07h12.78a33.36,33.36,0,0,0,33.07-33.07,30.52,30.52,0,0,0-9.77-23,31.83,31.83,0,0,0-23.3-9.77H304.25V236.94H274.19V61.56h65.39A60.94,60.94,0,0,1,364.13,66.57Z" transform="translate(-9.4 -8.79)"/><path class="cls-3" d="M463.72,88.49a51.44,51.44,0,0,1,20.17-3.76V114.8a34.81,34.81,0,0,0-25.56,10.52q-10.53,11-10.52,25.56v62.88H417.74V88.24h30.07V98A64.4,64.4,0,0,1,463.72,88.49Z" transform="translate(-9.4 -8.79)"/><path class="cls-4" d="M747.42,94a32.49,32.49,0,0,0-9.52,6.39,31.64,31.64,0,0,0-6.64,9.4,27.26,27.26,0,0,0-2.5,11.65h17.79l7.51,30.06h-25.3v85.44H698.69V121.44a63.08,63.08,0,0,1,4.76-22.93A60.24,60.24,0,0,1,736,66.07a60.26,60.26,0,0,1,23.05-4.51V91.62A28.63,28.63,0,0,0,747.42,94Z" transform="translate(-9.4 -8.79)"/><path class="cls-5" d="M770.34,61.56h30.07V91.62H770.34Zm0,175.38V111.67h30.07V236.94Z" transform="translate(-9.4 -8.79)"/><path class="cls-6" d="M884.08,236.94H856.52a39.92,39.92,0,0,1-16-3.26,40.5,40.5,0,0,1-13-8.9,43.13,43.13,0,0,1-8.77-13.15,39.88,39.88,0,0,1-3.25-16V86.36l30.06-7.51V126.7H863l7.52,30.06H845.5V195.6a10.88,10.88,0,0,0,3.26,8,10.57,10.57,0,0,0,7.76,3.26h20.05Z" transform="translate(-9.4 -8.79)"/><path class="cls-7" d="M1017.62,186.83a58.64,58.64,0,0,1-4,22.17,46.54,46.54,0,0,1-11.4,16.79,51.1,51.1,0,0,1-17.91,10.64,69.59,69.59,0,0,1-23.55,3.76q-20.81,0-37.08-6.64T896.86,218.4l20.79-20.8a59.47,59.47,0,0,0,18.54,11.53A50.1,50.1,0,0,0,948,212.38a69.54,69.54,0,0,0,9,.75,41.26,41.26,0,0,0,11.9-1.62,33.66,33.66,0,0,0,9.39-4.39,19.54,19.54,0,0,0,8.52-16.53,16.43,16.43,0,0,0-4.51-11.28,26.22,26.22,0,0,0-9-6.51,47.6,47.6,0,0,0-9.52-4q-5-1.5-9-2.76a9.26,9.26,0,0,0-2.25-.62,4.08,4.08,0,0,1-1.76-.63,3.76,3.76,0,0,1-1.5-.5q-5.26-1.5-15.16-5.26a98.82,98.82,0,0,1-19.66-10.27q-22.8-15.28-22.8-37.59,0-14.77,5.13-24.92A47.63,47.63,0,0,1,910.14,69.7a52.22,52.22,0,0,1,18.41-9.14,75.75,75.75,0,0,1,19.92-2.76q18,0,30.31,4.26a112.55,112.55,0,0,1,19.55,8.52,56.61,56.61,0,0,1,6.39,4.38q2.63,2.13,4.63,3.89l-21.3,21.54a53.67,53.67,0,0,0-13.78-10.27,50.64,50.64,0,0,0-22-5,41.36,41.36,0,0,0-10,1.25,38.2,38.2,0,0,0-8.77,3.26q-11,6.76-11,17.79a16.16,16.16,0,0,0,4.51,11.52,30.36,30.36,0,0,0,9,6.77,52.25,52.25,0,0,0,10,4q5.26,1.52,9.77,2.76l3,.75q1.25.51,4.76,1.51a76.73,76.73,0,0,1,8.27,3q4.76,2,10.4,4.76A90.71,90.71,0,0,1,993.32,149Q1017.61,165,1017.62,186.83Z" transform="translate(-9.4 -8.79)"/><path class="cls-7" d="M1152.91,111.67l-58.13,125.27L1087,254a56.93,56.93,0,0,1-52.12,33.32h-13.28l7.52-30.06h7.27a24.67,24.67,0,0,0,13.53-4,24.25,24.25,0,0,0,9.27-10.77l2.5-5.51-58.12-125.27h33.07l41.59,89.69,41.59-89.69Z" transform="translate(-9.4 -8.79)"/><path class="cls-7" d="M1200,159.27a94.94,94.94,0,0,1,10,3.51,78,78,0,0,1,14.4,7.64,52.38,52.38,0,0,1,12.91,12.15,27.81,27.81,0,0,1,5.51,17.29,43.14,43.14,0,0,1-2.88,16,36.9,36.9,0,0,1-21.92,21.3,51.21,51.21,0,0,1-18,3,72.93,72.93,0,0,1-28.44-5.51q-13.15-5.51-21.17-13.53l20.79-20.79q6.52,7.77,13.91,10a44.05,44.05,0,0,0,12.4,2.25q7.77,0,11.53-3a9,9,0,0,0,3.75-7.27,6.88,6.88,0,0,0-2.5-5.26,22.15,22.15,0,0,0-5.89-3.76,42.56,42.56,0,0,0-6.89-2.38c-2.34-.58-4.26-1.13-5.76-1.63q-3-1-10.15-3.5a69,69,0,0,1-14.53-7.27,50.06,50.06,0,0,1-12.9-12,28.11,28.11,0,0,1-5.51-17.53,41.86,41.86,0,0,1,3.63-18.17,36.8,36.8,0,0,1,9.64-12.65,39.29,39.29,0,0,1,13.78-7.39,54.37,54.37,0,0,1,16-2.38q12.78,0,21.67,3a74,74,0,0,1,14.66,6.51,51.57,51.57,0,0,1,11,9.52l-21,21a32.56,32.56,0,0,0-11-9.52,28.25,28.25,0,0,0-12.78-3,23.61,23.61,0,0,0-10.39,2.5,8.38,8.38,0,0,0-5.14,8,6.81,6.81,0,0,0,2.26,5.14,18,18,0,0,0,5.51,3.5,53.62,53.62,0,0,0,6.89,2.38Q1197,158.52,1200,159.27Z" transform="translate(-9.4 -8.79)"/><path class="cls-7" d="M1324,236.94h-27.56a39.89,39.89,0,0,1-16-3.26,40.5,40.5,0,0,1-13-8.9,43,43,0,0,1-8.77-13.15,39.89,39.89,0,0,1-3.26-16V86.36l30.07-7.51V126.7H1303l7.51,30.06h-25V195.6a10.87,10.87,0,0,0,3.25,8,10.59,10.59,0,0,0,7.77,3.26h20Z" transform="translate(-9.4 -8.79)"/><path class="cls-7" d="M1420.48,189.33h-65.64a31,31,0,0,0,7.26,10.28,35.38,35.38,0,0,0,11.78,7.89,36.49,36.49,0,0,0,13.78,2.63,35.2,35.2,0,0,0,18.29-4.76l31.31,12.52a63,63,0,0,1-21.79,16.41,68.06,68.06,0,0,1-53.62.76,66.1,66.1,0,0,1-35.2-35.2,64.48,64.48,0,0,1-5.13-25.56,65.13,65.13,0,0,1,5.13-25.81,66.1,66.1,0,0,1,35.2-35.2,67.47,67.47,0,0,1,51.61,0,66,66,0,0,1,35.2,35.2,65.13,65.13,0,0,1,5.14,25.81,62.19,62.19,0,0,1-1.75,15Zm-32.82-51.11q-14.54,0-25.56,10.53a33.84,33.84,0,0,0-7.26,10.52h65.64a34,34,0,0,0-7.27-10.52A34.76,34.76,0,0,0,1387.66,138.22Z" transform="translate(-9.4 -8.79)"/><path class="cls-7" d="M1600.61,108.16a40.19,40.19,0,0,1,18.42,4,35.18,35.18,0,0,1,12.9,11,50.6,50.6,0,0,1,7.52,16.29,77,77,0,0,1,2.5,20v77.42h-30.06V159.52a20.47,20.47,0,0,0-6.27-15,21.15,21.15,0,0,0-30.06,0,20.46,20.46,0,0,0-6.26,15v77.42h-30.07V159.52a20.5,20.5,0,0,0-6.26-15,18.33,18.33,0,0,0-6.89-4.76,22.23,22.23,0,0,0-8.14-1.51,20.26,20.26,0,0,0-15.29,6.27,20.5,20.5,0,0,0-6.26,15v77.42h-30.07V111.67h30.07v11a78.65,78.65,0,0,1,15.28-10.4,35.26,35.26,0,0,1,16.29-4.13q11.26,0,18.54,4.51a46,46,0,0,1,13,12.53A54.12,54.12,0,0,1,1577.06,113,56.44,56.44,0,0,1,1600.61,108.16Z" transform="translate(-9.4 -8.79)"/><path class="cls-8" d="M684.64,149a95.29,95.29,0,1,1-95.29-95.29A95.28,95.28,0,0,1,684.64,149Z" transform="translate(-9.4 -8.79)"/><path class="cls-9" d="M684.64,149a96.83,96.83,0,0,0-1-14l-29.44-29.44s-7.16,3.22-18.54,7.61L589.35,65.81a143.92,143.92,0,0,1-7.11,37.49c-2.72,7.89-14.67,10.38-14.93,20.29-19.53-15.59-43.19,3.72-28.62,23.67-16.05-.69-25.24,7.68-19.67,13.1l21.45,21.29c-6.34,5.83-10.89,10.14-10.89,10.14L581.77,244q3.75.3,7.58.3A95.28,95.28,0,0,0,684.64,149Z" transform="translate(-9.4 -8.79)"/><path class="cls-7" d="M593.9,179.29h-9.1L582.24,228h14.22Z" transform="translate(-9.4 -8.79)"/><path class="cls-7" d="M596.46,228h-7.11V179.29h4.55l.27,5.06Z" transform="translate(-9.4 -8.79)"/><path class="cls-7" d="M589.35,169.6c-39-12.77-59.77,22.19-59.77,22.19s33.88,16.5,59.77-12.2c25.89,28.7,59.77,12.2,59.77,12.2S628.39,156.83,589.35,169.6Z" transform="translate(-9.4 -8.79)"/><path class="cls-10" d="M649.12,191.79s-29.88,14.55-55-7.44a58.23,58.23,0,0,1-4.82-4.76v-10a57.12,57.12,0,0,1,11-2.46C632.27,163.37,649.12,191.79,649.12,191.79Z" transform="translate(-9.4 -8.79)"/><path class="cls-11" d="M510.69,150.61s25.8,40.45,78.84,29l2.55-6.36C559.33,134.16,510.69,150.61,510.69,150.61Z" transform="translate(-9.4 -8.79)"/><path class="cls-7" d="M668,150.61s-25.75,40.36-78.67,29v-9.48C622,135.05,668,150.61,668,150.61Z" transform="translate(-9.4 -8.79)"/><path class="cls-7" d="M524.53,105.53s-1.07,56.74,61.47,70.9l7-5.61C586,112.07,524.53,105.53,524.53,105.53Z" transform="translate(-9.4 -8.79)"/><path class="cls-10" d="M654.17,105.53s1.08,56.74-61.47,70.9l-7-5.61C592.74,112.07,654.17,105.53,654.17,105.53Z" transform="translate(-9.4 -8.79)"/><path class="cls-11" d="M589.35,65.81s-46,52.53-5.14,110.62h10.28C635.39,118.34,589.35,65.81,589.35,65.81Z" transform="translate(-9.4 -8.79)"/><path class="cls-7" d="M600.34,167.14a103,103,0,0,1-5.85,9.29h-5.14V65.81S630.59,112.86,600.34,167.14Z" transform="translate(-9.4 -8.79)"/></svg>